<svg xmlns="http://www.w3.org/2000/svg" width="606" height="633" viewBox="0 0 606 633" version="1.1"><path d="M 262.325 16.750 C 285.879 16.899, 324.129 16.899, 347.325 16.750 C 370.521 16.600, 351.250 16.478, 304.500 16.478 C 257.750 16.478, 238.771 16.600, 262.325 16.750 M 348.322 41.753 C 344.418 45.255, 343.949 46.269, 341.157 57.250 C 339.514 63.713, 338.469 68.993, 338.835 68.985 C 339.201 68.977, 341.272 67.471, 343.437 65.640 C 347.106 62.536, 347.587 61.481, 350.500 50.155 C 352.219 43.470, 353.372 38.001, 353.063 38.003 C 352.753 38.004, 350.620 39.692, 348.322 41.753 M 202.998 48.750 C 202.997 49.163, 208.059 49.382, 214.248 49.238 C 234.727 48.760, 236.720 48.381, 219.750 48.189 C 210.537 48.085, 202.999 48.337, 202.998 48.750 M 378 48.677 C 391.315 49.400, 406.004 49.438, 406.002 48.750 C 406.001 48.337, 398.462 48.085, 389.250 48.189 C 380.038 48.293, 374.975 48.513, 378 48.677 M 371.049 66.241 L 366.792 69.509 350.560 122.505 L 334.328 175.500 304.414 175.763 L 274.500 176.026 271.356 179.453 C 269.627 181.337, 268.352 183.019, 268.522 183.190 C 268.692 183.360, 284.760 183.377, 304.227 183.226 L 339.623 182.951 357.866 123.363 C 367.900 90.590, 375.928 63.595, 375.708 63.374 C 375.487 63.154, 373.391 64.444, 371.049 66.241 M 223 96.386 C 168.226 115.413, 123.235 150.207, 91.839 197.819 C 71.566 228.564, 58.986 261.256, 52.790 299.299 C 49.872 317.222, 49.634 355.652, 52.335 373 C 59.541 419.290, 74.916 456.035, 102.129 492 C 141.340 543.822, 197.920 577.890, 263.445 589.134 C 280.779 592.109, 316.563 592.834, 335 590.585 C 442.633 577.452, 529.897 498.496, 553.378 393 C 557.965 372.388, 559.290 357.126, 558.717 331.500 C 558.050 301.652, 555.076 283.547, 546.593 257.695 C 528.340 202.069, 489.936 153.219, 439.500 121.472 C 423.777 111.575, 390.716 96.493, 380.083 94.367 C 377.598 93.870, 377.130 94.187, 376.132 97.051 C 374.429 101.935, 374.704 102.777, 378.250 103.545 C 384.854 104.976, 404.885 113.311, 417.687 119.956 C 487.418 156.148, 534.548 221.969, 547.681 301.500 C 550.256 317.093, 550.254 357.649, 547.678 373.964 C 539.329 426.840, 515.750 473.251, 478.026 511.056 C 440.546 548.617, 393.942 572.292, 340.964 580.684 C 324.714 583.258, 284.156 583.253, 268.500 580.676 C 214.475 571.781, 168.680 548.642, 131.572 511.491 C 92.231 472.104, 68.943 424.705, 60.826 367.500 C 59.192 355.986, 59.193 320.366, 60.828 308 C 73.403 212.853, 137.753 134.430, 227.750 104.573 C 232.287 103.067, 236 101.587, 236 101.284 C 236 99.786, 233.607 93.006, 233.092 93.043 C 232.766 93.066, 228.225 94.571, 223 96.386 M 245 169.044 C 216.533 178.869, 186.604 199.364, 167.521 222.101 C 114.938 284.751, 109.661 372.287, 154.418 439.469 C 175.726 471.453, 204.623 494.510, 240.998 508.551 C 271.716 520.408, 309.879 523.183, 343.224 515.984 C 405.310 502.578, 456.937 455.837, 476.302 395.500 C 483.310 373.665, 485.532 356.988, 484.692 332.521 C 483.312 292.308, 469.993 256.864, 444.288 225 C 428.473 205.396, 402.862 185.521, 380.500 175.498 C 371.803 171.600, 356.205 166, 354.044 166 C 352.728 166, 351.725 167.360, 350.594 170.678 C 349.717 173.251, 349 175.484, 349 175.640 C 349 175.795, 350.913 176.435, 353.250 177.061 C 361.554 179.285, 377.643 186.175, 387.380 191.677 C 424.176 212.470, 453.364 247.974, 465.843 287.120 C 472.184 307.015, 473.412 315.378, 473.455 339 C 473.500 363.122, 472.518 370.178, 466.361 389.991 C 457.668 417.962, 443.530 440.651, 421.740 461.598 C 387.671 494.351, 344.848 510.610, 297.633 508.719 C 273.366 507.747, 253.528 502.759, 231.279 492.033 C 197.521 475.759, 171.317 450.278, 154.116 417 C 133.361 376.844, 129.527 331.648, 143.172 288 C 147.205 275.096, 158.517 252.542, 166.736 241.012 C 175.448 228.792, 193.918 210.345, 206.012 201.784 C 217.854 193.403, 235.563 184.182, 248 179.922 C 253.225 178.132, 257.658 176.547, 257.852 176.399 C 258.436 175.952, 254.891 165.996, 254.170 166.055 C 253.801 166.085, 249.675 167.430, 245 169.044 M 281.746 208.731 C 282.729 209.426, 283.048 237.989, 283.252 343.557 L 283.511 477.500 283.505 343.083 C 283.501 224.454, 283.324 208.619, 282 208.257 C 280.893 207.955, 280.827 208.079, 281.746 208.731 M 200.946 239.750 L 197.500 243.500 201.250 240.054 C 204.740 236.846, 205.460 236, 204.696 236 C 204.529 236, 202.842 237.688, 200.946 239.750 M 412.235 342.750 C 412.106 387.988, 412.337 425, 412.750 425 C 413.430 425, 413.422 367.091, 412.733 290 C 412.588 273.775, 412.364 297.512, 412.235 342.750 M 527.252 288.500 C 527.263 290.700, 527.468 291.482, 527.707 290.238 C 527.946 288.994, 527.937 287.194, 527.687 286.238 C 527.437 285.282, 527.241 286.300, 527.252 288.500 M 581.272 320 C 581.272 322.475, 581.467 323.488, 581.706 322.250 C 581.944 321.012, 581.944 318.988, 581.706 317.750 C 581.467 316.512, 581.272 317.525, 581.272 320 M 27.252 320.500 C 27.263 322.700, 27.468 323.482, 27.707 322.238 C 27.946 320.994, 27.937 319.194, 27.687 318.238 C 27.437 317.282, 27.241 318.300, 27.252 320.500 M 109.689 323.648 C 110.892 323.909, 112.077 325.002, 112.322 326.077 C 112.667 327.596, 112.736 327.526, 112.633 325.765 C 112.535 324.100, 111.838 323.457, 110 323.336 C 107.918 323.200, 107.866 323.252, 109.689 323.648 M 576.397 338 C 576.397 345.975, 576.553 349.238, 576.743 345.250 C 576.932 341.262, 576.932 334.738, 576.743 330.750 C 576.553 326.762, 576.397 330.025, 576.397 338 M 32.395 338.500 C 32.396 346.200, 32.553 349.218, 32.743 345.206 C 32.934 341.195, 32.932 334.895, 32.741 331.206 C 32.549 327.518, 32.393 330.800, 32.395 338.500 M 440.310 336.500 C 440.315 339.800, 440.502 341.029, 440.725 339.232 C 440.947 337.435, 440.943 334.735, 440.715 333.232 C 440.486 331.729, 440.304 333.200, 440.310 336.500 M 450.378 343 C 450.378 349.325, 450.541 351.913, 450.739 348.750 C 450.937 345.587, 450.937 340.413, 450.739 337.250 C 450.541 334.087, 450.378 336.675, 450.378 343 M 168.310 342.500 C 168.315 345.800, 168.502 347.029, 168.725 345.232 C 168.947 343.435, 168.943 340.735, 168.715 339.232 C 168.486 337.729, 168.304 339.200, 168.310 342.500 M 74.160 346.250 C 74.313 350.300, 74.340 350.336, 74.741 347.009 C 74.973 345.089, 75.689 343.183, 76.331 342.774 C 77.098 342.286, 76.898 342.025, 75.750 342.015 C 74.331 342.003, 74.030 342.803, 74.160 346.250 M 88.762 344.707 C 90.006 344.946, 91.806 344.937, 92.762 344.687 C 93.718 344.437, 92.700 344.241, 90.500 344.252 C 88.300 344.263, 87.518 344.468, 88.762 344.707 M 440.300 349 C 440.300 352.025, 440.487 353.262, 440.716 351.750 C 440.945 350.238, 440.945 347.762, 440.716 346.250 C 440.487 344.738, 440.300 345.975, 440.300 349 M 522.943 344.559 C 525.350 345.016, 525.958 345.699, 526.283 348.309 C 526.663 351.374, 526.675 351.362, 526.589 348 C 526.507 344.790, 526.230 344.479, 523.250 344.250 C 520.151 344.012, 520.137 344.026, 522.943 344.559 M 533.328 351.500 C 533.333 355.350, 533.513 356.802, 533.730 354.728 C 533.946 352.653, 533.943 349.503, 533.722 347.728 C 533.501 345.952, 533.324 347.650, 533.328 351.500 M 507.728 351.722 C 509.503 351.943, 512.653 351.946, 514.728 351.730 C 516.802 351.513, 515.350 351.333, 511.500 351.328 C 507.650 351.324, 505.952 351.501, 507.728 351.722 M 27.272 356 C 27.272 358.475, 27.467 359.488, 27.706 358.250 C 27.944 357.012, 27.944 354.988, 27.706 353.750 C 27.467 352.512, 27.272 353.525, 27.272 356 M 495.328 358.500 C 495.333 362.350, 495.513 363.802, 495.730 361.728 C 495.946 359.653, 495.943 356.503, 495.722 354.728 C 495.501 352.952, 495.324 354.650, 495.328 358.500 M 581.252 356.500 C 581.263 358.700, 581.468 359.482, 581.707 358.238 C 581.946 356.994, 581.937 355.194, 581.687 354.238 C 581.437 353.282, 581.241 354.300, 581.252 356.500 M 75.252 360.500 C 75.263 362.700, 75.468 363.482, 75.707 362.238 C 75.946 360.994, 75.937 359.194, 75.687 358.238 C 75.437 357.282, 75.241 358.300, 75.252 360.500 M 504.768 362.725 C 506.565 362.947, 509.265 362.943, 510.768 362.715 C 512.271 362.486, 510.800 362.304, 507.500 362.310 C 504.200 362.315, 502.971 362.502, 504.768 362.725 M 527.762 366.707 C 529.006 366.946, 530.806 366.937, 531.762 366.687 C 532.718 366.437, 531.700 366.241, 529.500 366.252 C 527.300 366.263, 526.518 366.468, 527.762 366.707 M 101.264 429.718 C 102.784 429.947, 105.034 429.941, 106.264 429.704 C 107.494 429.467, 106.250 429.279, 103.500 429.286 C 100.750 429.294, 99.744 429.488, 101.264 429.718 M 480.500 447 C 483.209 449.750, 485.650 452, 485.925 452 C 486.200 452, 484.209 449.750, 481.500 447 C 478.791 444.250, 476.350 442, 476.075 442 C 475.800 442, 477.791 444.250, 480.500 447 M 166.750 482.706 C 167.988 482.944, 170.012 482.944, 171.250 482.706 C 172.488 482.467, 171.475 482.272, 169 482.272 C 166.525 482.272, 165.512 482.467, 166.750 482.706 M 298.789 488.741 C 302.248 488.937, 307.648 488.936, 310.789 488.738 C 313.930 488.540, 311.100 488.380, 304.500 488.382 C 297.900 488.384, 295.330 488.546, 298.789 488.741 M 507.946 526.750 L 504.500 530.500 508.250 527.054 C 511.740 523.846, 512.460 523, 511.696 523 C 511.529 523, 509.842 524.688, 507.946 526.750 M 101 527.500 C 102.866 529.425, 104.617 531, 104.892 531 C 105.167 531, 103.866 529.425, 102 527.500 C 100.134 525.575, 98.383 524, 98.108 524 C 97.833 524, 99.134 525.575, 101 527.500 M 400.252 527.500 C 400.263 529.700, 400.468 530.482, 400.707 529.238 C 400.946 527.994, 400.937 526.194, 400.687 525.238 C 400.437 524.282, 400.241 525.300, 400.252 527.500 M 409.300 530 C 409.300 533.025, 409.487 534.263, 409.716 532.750 C 409.945 531.237, 409.945 528.763, 409.716 527.250 C 409.487 525.737, 409.300 526.975, 409.300 530 M 208.397 529.833 C 208.884 530.621, 215 530.208, 215 529.387 C 215 529.174, 213.398 529, 211.441 529 C 209.484 529, 208.114 529.375, 208.397 529.833 M 289.250 532.728 C 291.313 532.944, 294.688 532.944, 296.750 532.728 C 298.813 532.513, 297.125 532.336, 293 532.336 C 288.875 532.336, 287.188 532.513, 289.250 532.728 M 309.750 532.706 C 310.988 532.944, 313.012 532.944, 314.250 532.706 C 315.488 532.467, 314.475 532.272, 312 532.272 C 309.525 532.272, 308.512 532.467, 309.750 532.706 M 323.136 535.667 C 323.061 537.408, 322.438 539.060, 321.750 539.338 C 320.771 539.733, 320.778 539.859, 321.781 539.921 C 323.428 540.023, 324.279 537.780, 323.715 534.823 C 323.369 533.008, 323.243 533.192, 323.136 535.667 M 115 541.500 C 116.866 543.425, 118.617 545, 118.892 545 C 119.167 545, 117.866 543.425, 116 541.500 C 114.134 539.575, 112.383 538, 112.108 538 C 111.833 538, 113.134 539.575, 115 541.500 M 349.272 551 C 349.272 553.475, 349.467 554.487, 349.706 553.250 C 349.944 552.013, 349.944 549.987, 349.706 548.750 C 349.467 547.513, 349.272 548.525, 349.272 551 M 340.762 567.707 C 342.006 567.946, 343.806 567.937, 344.762 567.687 C 345.718 567.437, 344.700 567.241, 342.500 567.252 C 340.300 567.263, 339.518 567.468, 340.762 567.707 M 299.784 610.738 C 302.689 610.941, 307.189 610.939, 309.784 610.734 C 312.378 610.528, 310 610.363, 304.500 610.365 C 299 610.368, 296.878 610.536, 299.784 610.738 M 287.264 615.718 C 288.784 615.947, 291.034 615.941, 292.264 615.704 C 293.494 615.467, 292.250 615.279, 289.500 615.286 C 286.750 615.294, 285.744 615.488, 287.264 615.718 M 317.264 615.718 C 318.784 615.947, 321.034 615.941, 322.264 615.704 C 323.494 615.467, 322.250 615.279, 319.500 615.286 C 316.750 615.294, 315.744 615.488, 317.264 615.718" stroke="none" fill="#b5a268" fill-rule="evenodd"/><path d="M 224.517 29.712 C 226.983 36.704, 229 42.554, 229 42.712 C 229 42.870, 221.523 43, 212.383 43 C 197.032 43, 195.805 43.133, 196.272 44.750 C 196.550 45.712, 199.293 53.614, 202.368 62.310 L 207.958 78.120 204.229 79.660 C 190.790 85.213, 185.214 87.784, 175 93.139 C 107.027 128.776, 56.029 192.943, 36.467 267.445 C 26.905 303.860, 24.756 340.787, 30.061 377.500 C 46.720 492.787, 131.815 584.147, 246 609.337 C 283.186 617.541, 325.814 617.541, 363 609.337 C 442.044 591.899, 507.865 542.960, 547.388 472.243 C 573.156 426.137, 585.380 369.292, 580.923 316.304 C 576.307 261.431, 556.421 210.471, 522.704 167.108 C 512.174 153.565, 491.421 132.613, 478 121.976 C 464.320 111.133, 448.319 100.647, 434 93.139 C 423.791 87.787, 418.203 85.210, 404.792 79.669 L 401.085 78.138 406.657 62.319 C 409.722 53.618, 412.455 45.712, 412.731 44.750 C 413.195 43.133, 411.967 43, 396.617 43 C 387.477 43, 380 42.870, 380 42.712 C 380 42.554, 382.017 36.704, 384.483 29.712 L 388.966 17 304.500 17 L 220.034 17 224.517 29.712 M 231.575 34.548 C 234.009 41.449, 236 47.299, 236 47.548 C 236 47.796, 228.527 48, 219.393 48 C 206.535 48, 202.887 48.282, 203.234 49.250 C 208.339 63.484, 214.194 81.118, 213.893 81.350 C 213.677 81.516, 209.675 83.129, 205 84.933 C 181.711 93.922, 154.258 109.954, 133.500 126.687 C 120.227 137.387, 97.406 160.942, 87.486 174.182 C 58.586 212.757, 41.479 254.417, 34.386 303.500 C 32.260 318.211, 31.963 354.698, 33.849 369.500 C 41.973 433.251, 69.959 489.734, 115.135 533.554 C 157.899 575.035, 210.654 600.428, 271.087 608.619 C 287.905 610.899, 321.095 610.899, 337.913 608.619 C 397.750 600.509, 450.625 575.238, 492.899 534.547 C 537.964 491.169, 565.955 435.863, 574.661 373 C 577.288 354.028, 577.030 319.027, 574.124 300.107 C 564.883 239.951, 538.902 188.174, 496.864 146.136 C 470.366 119.638, 437.084 97.703, 404 84.933 C 399.325 83.129, 395.323 81.516, 395.107 81.350 C 394.806 81.118, 400.661 63.484, 405.766 49.250 C 406.113 48.282, 402.465 48, 389.607 48 C 380.473 48, 373 47.796, 373 47.548 C 373 47.299, 374.991 41.449, 377.425 34.548 L 381.850 22 304.500 22 L 227.150 22 231.575 34.548 M 255.312 39.500 C 255.645 40.600, 257.098 46.225, 258.541 52 C 261.021 61.925, 261.392 62.675, 265.309 65.690 C 267.589 67.444, 269.534 68.794, 269.633 68.690 C 269.731 68.585, 268.392 63.154, 266.656 56.620 C 263.636 45.253, 263.310 44.583, 259.104 41.120 C 255.643 38.271, 254.836 37.926, 255.312 39.500 M 299.918 72.710 L 295.363 86.500 280.577 87 L 265.791 87.500 277.395 95.928 C 283.778 100.563, 289 104.799, 289 105.340 C 289 105.882, 287.177 111.929, 284.949 118.778 C 282.720 125.627, 281.106 131.440, 281.362 131.695 C 281.618 131.951, 286.805 128.524, 292.890 124.080 C 298.975 119.636, 304.241 116, 304.592 116 C 304.943 116, 310.173 119.631, 316.214 124.068 C 322.255 128.506, 327.424 131.909, 327.702 131.631 C 327.980 131.353, 326.361 125.584, 324.104 118.811 C 321.847 112.039, 320 106.015, 320 105.426 C 320 104.838, 325.222 100.563, 331.605 95.928 L 343.209 87.500 328.436 87 L 313.663 86.500 309.068 72.710 L 304.473 58.921 299.918 72.710 M 234.553 70.757 C 235.869 75.016, 244.046 101.782, 252.723 130.237 C 261.400 158.692, 268.753 181.980, 269.062 181.987 C 269.371 181.994, 270.613 180.662, 271.822 179.027 L 274.019 176.055 257.923 123.277 C 243.070 74.579, 241.581 70.282, 238.663 67.680 C 232.245 61.959, 231.911 62.210, 234.553 70.757 M 284.500 198.382 C 222.431 207.427, 173.705 253.811, 161.335 315.626 C 158.626 329.165, 158.860 358.106, 161.787 371.604 C 170.642 412.430, 194.320 446.228, 228.681 467.085 C 252.548 481.572, 275.844 488.004, 304.426 487.996 C 328.546 487.990, 346.529 484.161, 366 474.887 C 378.502 468.932, 383.830 465.671, 394.530 457.424 C 420.414 437.474, 439.377 407.425, 447.177 374 C 449.732 363.050, 450.771 334.769, 449.057 322.814 C 444.454 290.704, 430.170 262.117, 407.434 239.513 C 387.385 219.579, 361.908 205.824, 334.199 199.972 C 321.694 197.331, 297.111 196.545, 284.500 198.382 M 272.500 210.447 C 261.836 213.223, 252.793 216.561, 244.237 220.880 L 238 224.029 238 342.864 L 238 461.698 247.750 466.283 C 257.754 470.986, 270.954 475.271, 279.297 476.522 L 284.007 477.228 283.754 342.947 C 283.587 254.498, 283.159 208.571, 282.500 208.385 C 281.950 208.230, 277.450 209.158, 272.500 210.447 M 326 342.609 L 326 477.256 329.841 476.641 C 336.954 475.504, 351.434 470.908, 360.750 466.831 L 370 462.782 370 342.911 L 370 223.041 366.088 221.045 C 356.372 216.088, 344.930 212.271, 328.750 208.588 L 326 207.962 326 342.609 M 498.181 227.057 C 496.508 227.727, 496.028 228.514, 496.461 229.877 C 496.926 231.343, 494.426 234.271, 485.334 242.903 L 473.607 254.038 478.009 263.019 C 480.430 267.959, 482.798 272, 483.271 272 C 485.026 272, 488 269.888, 488 268.641 C 488 267.759, 491.850 266.785, 500.219 265.550 C 511.122 263.940, 512.541 263.910, 513.398 265.270 C 514.170 266.493, 514.866 266.577, 516.930 265.694 C 518.343 265.090, 519.646 264.503, 519.823 264.391 C 520.001 264.278, 518.558 260.748, 516.616 256.545 L 513.086 248.904 510.131 250.432 C 507.929 251.571, 507.311 252.474, 507.705 253.980 C 508.101 255.496, 507.747 256, 506.288 256 C 504.930 256, 503.630 254.479, 501.986 250.970 C 499.838 246.384, 499.770 245.802, 501.212 244.359 C 502.655 242.916, 502.853 242.963, 503.465 244.888 C 504.231 247.304, 504.932 247.444, 508.383 245.872 L 510.859 244.743 506.204 235.372 C 503.644 230.217, 501.313 226.029, 501.024 226.063 C 500.736 226.098, 499.456 226.545, 498.181 227.057 M 107.500 230.417 C 100.762 233.425, 95.989 241.446, 96.015 249.718 C 96.038 256.664, 96.923 257.639, 101.862 256.160 C 105.779 254.986, 105.854 254.880, 104.832 251.947 C 103.600 248.413, 105.193 243.502, 108.071 241.962 C 113.475 239.070, 122.992 243.668, 125.341 250.306 C 126.311 253.048, 121.591 257.365, 118.476 256.583 C 116.411 256.065, 115.757 256.555, 114.048 259.905 L 112.043 263.835 116.272 266.280 C 125.320 271.512, 124.723 271.463, 126.916 267.165 C 128.351 264.352, 128.591 262.991, 127.794 262.194 C 126.996 261.396, 127.377 260.785, 129.183 259.963 C 134.491 257.544, 136.629 248.791, 133.640 241.718 C 129.553 232.048, 116.494 226.403, 107.500 230.417 M 490 255.025 L 485.500 259.044 491.500 258.397 C 494.800 258.041, 497.646 257.623, 497.824 257.468 C 498.140 257.193, 495.169 250.997, 494.724 251.003 C 494.601 251.004, 492.475 252.814, 490 255.025 M 412 343 C 412 388.100, 412.337 424.994, 412.750 424.987 C 413.980 424.966, 422.173 412.118, 426.770 403 C 436.315 384.070, 440.441 365.976, 440.452 343 C 440.464 319.737, 437.159 304.683, 427.608 284.478 C 423.023 274.779, 414.397 261, 412.910 261 C 412.371 261, 412 294.431, 412 343 M 85.179 276.106 C 82.803 283.853, 81.003 290.308, 81.179 290.451 C 81.900 291.033, 91.447 294, 92.601 294 C 93.285 294, 94.382 292.372, 95.039 290.381 C 96.265 286.668, 95.444 285.056, 92.309 285.015 C 90.339 284.990, 89.963 283.406, 91.131 280.054 C 91.766 278.234, 92.762 277.079, 93.465 277.348 C 94.140 277.607, 99.298 279.240, 104.927 280.978 C 112.316 283.258, 115.017 284.513, 114.642 285.491 C 114.313 286.347, 115.265 287.245, 117.223 287.928 C 118.929 288.523, 120.413 288.894, 120.521 288.755 C 121.619 287.330, 124.937 273.552, 124.319 272.981 C 122.799 271.577, 119 270.828, 119 271.933 C 119 273.620, 116.467 273.221, 105.886 269.866 C 98.332 267.472, 96 266.320, 96 264.983 C 96 263.434, 93.397 262.034, 90.500 262.024 C 89.950 262.022, 87.556 268.359, 85.179 276.106 M 190.714 268.375 C 161.534 312.324, 161.387 372.456, 190.353 416.500 L 194.957 423.500 194.979 343.250 C 194.990 299.113, 194.839 263, 194.642 263 C 194.444 263, 192.677 265.419, 190.714 268.375 M 508.943 275.759 C 506.166 278.241, 505.726 279.459, 504.571 287.862 C 503.199 297.838, 501.832 300.063, 498.773 297.294 C 496.343 295.095, 496.549 291.359, 499.250 288.661 C 501.228 286.684, 501.392 285.905, 500.608 282.206 C 499.616 277.529, 499.536 277.501, 492.500 279.360 C 487.892 280.578, 487.517 280.904, 487.713 283.524 C 488.034 287.800, 488.737 289, 490.918 289 C 492.806 289, 492.828 289.169, 491.383 292.627 C 487.075 302.937, 496.789 314.622, 506.348 310.628 C 511.015 308.678, 513.043 304.468, 513.737 295.294 C 514.139 289.976, 514.733 287.656, 515.796 287.248 C 519.462 285.841, 521.485 294.515, 518.246 297.754 C 516.797 299.203, 516.648 300.245, 517.388 303.754 C 518.376 308.437, 518.604 308.518, 525.999 306.811 L 531.152 305.622 530.485 302.068 C 529.625 297.484, 529.283 297, 526.906 297 C 525.262 297, 525.104 296.675, 525.965 295.066 C 527.660 291.898, 527.166 284.245, 524.990 279.981 C 521.389 272.921, 514.228 271.037, 508.943 275.759 M 108.500 302.451 C 107.662 303.726, 106.450 303.816, 101 303.006 C 91.506 301.595, 86.937 301.785, 83 303.752 C 78.320 306.090, 75 312.681, 75 319.635 C 75 328.471, 80.643 332.978, 93.500 334.412 C 103.323 335.507, 105.197 336.044, 104.602 337.595 C 104.214 338.607, 104.964 339.042, 107.281 339.150 C 110.306 339.291, 110.334 339.325, 107.750 339.716 C 105.932 339.992, 105 340.738, 105 341.918 C 105 343.436, 103.763 343.800, 96.750 344.346 C 83.750 345.358, 81 345.210, 81 343.500 C 81 341.852, 78.296 341.527, 76.108 342.912 C 74.977 343.628, 74.852 346.011, 75.442 355.586 C 76.252 368.748, 77.902 374.179, 81.601 375.864 C 86.765 378.217, 92.965 376.566, 94.898 372.324 L 96.017 369.868 98.643 371.934 C 101.586 374.249, 104.703 374.548, 108.385 372.870 C 112.641 370.931, 113.366 367.367, 112.386 353.220 C 111.901 346.224, 111.634 336.788, 111.792 332.250 C 112.025 325.558, 111.804 324, 110.622 324 C 109.820 324, 108.452 323.727, 107.582 323.393 C 106.544 322.995, 106 323.338, 106 324.393 C 106 326.258, 104.949 326.314, 95.534 324.954 C 86.853 323.699, 84 321.968, 84 317.956 C 84 313.563, 86.935 312.591, 97.541 313.475 C 104.900 314.088, 106.316 314.492, 106.736 316.100 C 107.079 317.409, 108.124 318, 110.098 318 C 113.403 318, 113.878 316.801, 114.256 307.500 C 114.489 301.767, 114.389 301.487, 112 301.215 C 110.598 301.056, 109.061 301.599, 108.500 302.451 M 525.349 314.468 C 526.156 316.571, 525.576 316.746, 513.514 318.045 C 503.806 319.090, 502.504 319.043, 501.455 317.608 C 500.809 316.724, 499.038 316, 497.521 316 L 494.763 316 495.483 324.750 C 495.879 329.563, 496.350 333.655, 496.530 333.845 C 497.355 334.716, 503 332.695, 503 331.529 C 503 329.811, 505.495 329.267, 517.250 328.425 C 525.897 327.805, 527 327.911, 527 329.363 C 527 331.490, 531.837 331.588, 532.647 329.478 C 532.968 328.641, 532.916 324.591, 532.530 320.478 L 531.829 313 528.308 313 C 525.622 313, 524.920 313.349, 525.349 314.468 M 520 339.937 C 520 343.647, 520.187 343.891, 523.250 344.187 C 526.217 344.473, 526.527 344.826, 526.810 348.250 L 527.121 352 516.310 351.930 C 505.354 351.858, 501.589 351.201, 502.176 349.461 C 502.354 348.932, 501.038 348.359, 499.250 348.187 L 496 347.873 496 356.437 L 496 365 499 365 C 501.120 365, 502 364.516, 502 363.352 C 502 361.902, 502.994 361.781, 510.250 362.346 C 514.788 362.699, 520.188 362.991, 522.250 362.994 C 524.914 362.998, 526 363.434, 526 364.500 C 526 365.548, 527.056 366, 529.500 366 L 533 366 533.007 357.750 C 533.011 353.212, 533.301 346.462, 533.652 342.750 L 534.289 336 527.145 336 L 520 336 520 339.937 M 100.500 354.907 C 98.247 355.401, 97.574 356.055, 97.798 357.532 C 98.412 361.599, 98.964 362.130, 102.243 361.814 C 105.222 361.527, 105.500 361.209, 105.500 358.083 C 105.500 354.314, 104.911 353.940, 100.500 354.907 M 85.750 355.737 C 82.377 356.082, 82 356.409, 82 358.989 C 82 362.450, 84.311 365, 87.449 365 C 90.599 365, 92.199 362.763, 91.818 358.892 C 91.468 355.328, 91.186 355.182, 85.750 355.737 M 494.157 371.750 C 489.956 391.533, 488.714 398.040, 489.079 398.355 C 489.311 398.555, 490.738 399.016, 492.250 399.378 C 494.333 399.878, 495 399.669, 495 398.519 C 495 396.551, 495.520 396.578, 508.250 399.194 C 517.062 401.004, 519 401.723, 519 403.182 C 519 404.960, 523.468 406.866, 524.714 405.620 C 525.280 405.053, 532.055 374.637, 531.668 374.399 C 531.207 374.117, 520.472 372.209, 520.296 372.378 C 520.183 372.486, 519.788 374.471, 519.418 376.788 C 518.867 380.234, 519.030 381, 520.313 381 C 522.631 381, 523.118 382.407, 522.386 386.989 C 521.750 390.964, 521.626 391.079, 518.614 390.475 C 511.999 389.149, 512.145 389.301, 513.156 384.801 C 514.328 379.585, 513.719 378, 510.546 378 C 508.397 378, 507.863 378.659, 506.896 382.500 C 505.910 386.413, 505.419 386.998, 503.131 386.985 C 498.735 386.959, 497.856 385.831, 498.798 381.428 C 499.539 377.970, 499.960 377.523, 502.320 377.688 C 503.962 377.804, 505 377.368, 505 376.563 C 505 375.841, 505.268 373.908, 505.596 372.268 C 506.166 369.420, 505.989 369.235, 501.654 368.143 C 495.225 366.524, 495.271 366.502, 494.157 371.750 M 111.708 388.697 C 110.502 389.011, 110.106 389.759, 110.496 390.986 C 110.991 392.547, 109.462 393.347, 99.899 396.534 C 90.182 399.772, 88.611 400.056, 87.861 398.716 C 87.149 397.444, 86.473 397.373, 83.999 398.306 C 82.350 398.929, 81 399.704, 81 400.028 C 81 401.093, 87.020 417.137, 88.475 419.951 C 89.257 421.465, 91.511 424.120, 93.484 425.852 C 96.695 428.671, 97.729 429, 103.378 429 C 111.805 429, 117.524 426.041, 120.697 420.040 C 123.778 414.215, 123.629 410.394, 119.853 398.250 C 116.600 387.791, 116.346 387.493, 111.708 388.697 M 102.750 406.803 C 96.294 408.982, 92 410.963, 92 411.761 C 92 414.582, 96.789 418, 100.743 418 C 105.774 418, 113.164 414.209, 114.781 410.799 C 115.987 408.256, 115.543 402.897, 114.142 403.087 C 113.789 403.135, 108.662 404.807, 102.750 406.803 M 125.500 423.579 C 124.400 424.413, 123.611 425.861, 123.747 426.798 C 124.111 429.304, 103.869 440.518, 102.712 438.450 C 102.008 437.192, 101.503 437.206, 98.886 438.559 L 95.872 440.118 97.746 443.309 C 98.777 445.064, 102.231 451.117, 105.421 456.760 C 108.611 462.402, 111.635 467.275, 112.141 467.587 C 112.975 468.103, 122 463.460, 122 462.515 C 122 462.295, 121.059 460.520, 119.909 458.571 C 118.174 455.630, 117.505 455.195, 115.975 456.013 C 113.316 457.436, 113.240 457.390, 111.012 453.024 L 108.984 449.049 113.089 446.955 C 115.347 445.803, 117.320 445.004, 117.474 445.180 C 117.628 445.356, 118.708 447.392, 119.874 449.705 L 121.995 453.910 124.949 452.215 L 127.902 450.519 125.424 446.085 C 123.497 442.637, 123.230 441.460, 124.223 440.792 C 129.378 437.324, 130.151 437.457, 132.625 442.241 C 134.130 445.152, 134.118 445.441, 132.431 446.674 C 130.724 447.922, 130.717 448.184, 132.297 451.497 C 133.216 453.424, 134.448 455, 135.036 455 C 136.658 455, 143.984 450.619, 143.992 449.644 C 144.004 448.353, 128.867 421.995, 128.135 422.032 C 127.786 422.049, 126.600 422.746, 125.500 423.579 M 473.769 431.804 L 469.065 440.607 471.964 442.320 C 474.007 443.527, 475.067 443.701, 475.555 442.910 C 476.601 441.219, 494.131 459.012, 493.470 461.093 C 493.146 462.116, 493.867 463.338, 495.383 464.331 C 498.288 466.235, 498.492 466.043, 502.884 457.276 L 506.002 451.053 503.051 449.526 C 500.355 448.132, 500.017 448.147, 499.146 449.703 C 498.352 451.123, 497.934 451.190, 496.629 450.107 C 495.223 448.940, 495.313 448.315, 497.513 443.975 C 500.325 438.426, 501.041 437.787, 503.048 439.035 C 504.214 439.761, 504.264 440.319, 503.303 441.870 C 502.254 443.564, 502.473 443.953, 505.086 445.035 C 506.724 445.714, 508.208 446.096, 508.385 445.885 C 508.561 445.673, 510.820 441.588, 513.403 436.806 L 518.101 428.112 515.429 426.362 C 512.884 424.694, 512.697 424.694, 511.473 426.368 C 510.254 428.036, 509.450 427.994, 495.758 425.563 C 487.822 424.153, 480.686 423, 479.901 423 C 479.116 423, 476.357 426.962, 473.769 431.804 M 485.958 439.373 C 488.410 441.918, 490.536 444, 490.683 444 C 491.006 444, 494 438.278, 494 437.661 C 494 437.420, 492.313 436.917, 490.250 436.543 C 488.188 436.169, 485.375 435.612, 484 435.305 C 481.773 434.807, 481.987 435.252, 485.958 439.373 M 141.669 453.814 C 140.549 455.051, 140.353 455.953, 141.051 456.651 C 141.750 457.350, 139.144 460.099, 132.848 465.303 C 125.716 471.199, 123.320 472.680, 122.292 471.827 C 121.295 471, 120.467 471.173, 118.981 472.517 C 117.892 473.503, 117 474.733, 117 475.251 C 117 476.256, 126.161 487.863, 127 487.921 C 127.275 487.940, 128.603 487.108, 129.951 486.072 C 131.875 484.593, 132.155 483.891, 131.252 482.804 C 130.341 481.706, 130.794 480.867, 133.429 478.764 L 136.756 476.109 141.248 480.413 C 143.719 482.780, 147.036 484.965, 148.620 485.268 C 152.242 485.960, 157.241 483.921, 159.369 480.883 C 161.482 477.867, 161.454 472.110, 159.311 468.973 C 155.041 462.719, 145.744 452, 144.591 452 C 143.886 452, 142.571 452.816, 141.669 453.814 M 452.106 465.161 C 449.298 468.631, 447 471.745, 447 472.081 C 447 472.416, 447.892 473.497, 448.981 474.483 C 450.451 475.813, 451.301 475.995, 452.273 475.188 C 454.061 473.705, 472.104 487.735, 471.428 490.082 C 470.935 491.791, 474.286 495.431, 475.818 494.853 C 476.955 494.424, 494 472.979, 494 471.978 C 494 471.119, 484.991 464, 483.904 464 C 483.482 464, 482.126 465.419, 480.891 467.153 L 478.646 470.306 481.297 472.420 L 483.947 474.533 481.592 477.487 C 479.813 479.718, 478.902 480.186, 477.868 479.398 C 467.904 471.801, 460.965 465.533, 461.365 464.491 C 461.635 463.788, 460.811 462.231, 459.534 461.032 L 457.212 458.850 452.106 465.161 M 144.641 469.428 L 140.782 472.683 143.526 474.842 C 146.876 477.477, 148.201 477.541, 150.345 475.171 C 152.491 472.799, 152.452 469.715, 150.250 467.742 C 148.641 466.300, 148.189 466.436, 144.641 469.428 M 428.635 487.600 L 422.771 493.127 425.048 495.551 C 426.590 497.192, 427.698 497.666, 428.478 497.018 C 430.198 495.591, 445.336 512.367, 444.553 514.832 C 444.194 515.963, 444.733 517.354, 445.960 518.464 C 448.450 520.717, 449.017 520.358, 461.500 508.622 L 470.500 500.160 466.042 495.580 C 463.590 493.061, 461.340 491.014, 461.042 491.032 C 460.744 491.049, 459.208 492.199, 457.629 493.588 L 454.757 496.113 457.053 498.556 L 459.349 501 457 503.500 C 455.708 504.875, 454.380 506, 454.048 506 C 453.717 506, 449.936 502.119, 445.647 497.376 C 440.115 491.257, 438.159 488.441, 438.917 487.683 C 439.676 486.924, 439.356 485.944, 437.819 484.307 C 436.627 483.038, 435.392 482.016, 435.076 482.036 C 434.759 482.057, 431.861 484.560, 428.635 487.600 M 158.946 485.823 C 155.991 487.699, 153.539 490.414, 151.634 493.921 C 146.387 503.580, 149.183 513.122, 159.204 519.754 C 167.940 525.535, 178.900 522.184, 185.344 511.761 C 189.356 505.272, 189.802 499.717, 186.772 494 C 181.224 483.536, 168.457 479.784, 158.946 485.823 M 169.280 493.971 C 160.159 499.532, 156.709 512, 164.291 512 C 166.664 512, 168.445 510.883, 172.080 507.111 C 177.580 501.405, 179.085 496.856, 176.439 493.933 C 174.252 491.516, 173.298 491.521, 169.280 493.971 M 413.857 499.459 C 409.811 502.459, 403.913 506.290, 400.750 507.971 C 397.587 509.653, 395 511.226, 395 511.467 C 395 513.280, 397.494 516.748, 398.515 516.356 C 399.442 516, 399.962 518.091, 400.462 524.185 C 400.837 528.758, 401.380 533.400, 401.669 534.500 C 401.976 535.666, 399.131 533.431, 394.848 529.140 C 390.500 524.785, 388.004 521.588, 388.735 521.311 C 389.683 520.952, 389.618 520.163, 388.459 517.922 C 387.629 516.315, 386.742 515, 386.489 515 C 386.236 515, 382.230 516.884, 377.586 519.188 L 369.143 523.375 370.579 526.153 C 371.444 527.826, 372.568 528.719, 373.405 528.398 C 374.209 528.089, 380.347 532.369, 388.005 538.579 L 401.216 549.293 405.645 547.142 L 410.073 544.991 409.490 531.745 C 409.170 524.460, 408.699 517.184, 408.444 515.575 C 408.114 513.495, 408.611 511.978, 410.164 510.325 C 411.366 509.046, 412.685 508, 413.097 508 C 413.509 508, 416.830 512.311, 420.479 517.580 C 425.637 525.031, 426.862 527.461, 425.989 528.513 C 425.142 529.534, 425.277 530.493, 426.536 532.414 L 428.205 534.962 435.543 529.840 C 442.843 524.742, 442.871 524.705, 441.190 522.376 C 440.259 521.085, 438.643 520.139, 437.590 520.267 C 434.745 520.614, 422.312 502.534, 423.999 500.501 C 424.947 499.359, 424.783 498.540, 423.204 496.533 L 421.215 494.004 413.857 499.459 M 193.780 503.796 C 192.393 506.143, 192.350 506.744, 193.507 507.546 C 195.499 508.924, 184.274 529.222, 181.931 528.478 C 180.169 527.919, 177.316 532.795, 178.702 533.996 C 179.141 534.376, 182.437 536.298, 186.026 538.267 L 192.551 541.847 194.219 538.941 C 195.742 536.287, 195.748 535.958, 194.286 535.140 C 192.859 534.341, 192.931 533.848, 194.953 530.576 C 197.302 526.776, 198.623 526.455, 200.389 529.256 C 201.141 530.448, 200.957 531.867, 199.711 534.480 C 197.478 539.162, 197.549 542.157, 199.966 545.230 C 204.576 551.091, 211.372 551.049, 214.427 545.141 C 215.745 542.593, 215.756 542.120, 214.507 541.641 C 213.714 541.337, 212.798 541.518, 212.473 542.044 C 210.894 544.598, 209.982 542.619, 210.598 537.975 C 211.136 533.916, 210.920 532.570, 209.477 530.975 C 207.727 529.041, 207.770 529, 211.595 528.985 C 216.063 528.967, 217.242 528.371, 218.850 525.316 C 220.697 521.806, 220.201 517.392, 217.613 514.317 C 215.788 512.148, 197.493 501, 195.758 501 C 195.578 501, 194.688 502.258, 193.780 503.796 M 202.245 517.204 C 199.743 521.773, 199.904 522.508, 203.608 523.438 C 208.563 524.681, 212.001 519.029, 208.250 515.807 C 205.010 513.025, 204.465 513.152, 202.245 517.204 M 226.571 524.404 C 224.492 531.554, 224.482 531.505, 228.392 532.705 C 231.662 533.709, 231.816 533.635, 232.701 530.623 C 233.384 528.299, 234.116 527.588, 235.560 527.845 C 236.627 528.035, 237.684 528.369, 237.910 528.588 C 238.135 528.807, 236.816 533.976, 234.977 540.075 C 231.882 550.345, 231.468 551.131, 229.364 550.729 C 227.559 550.384, 226.877 550.914, 226.042 553.310 C 225.464 554.968, 225.106 556.413, 225.245 556.521 C 225.385 556.629, 229.633 558.090, 234.685 559.766 L 243.869 562.814 244.947 559.724 C 246.007 556.680, 245.584 555.766, 242.631 554.727 C 241.415 554.299, 248.609 532.477, 249.926 532.600 C 253.905 532.970, 253.878 532.938, 252.940 536.210 C 251.874 539.926, 252.610 540.998, 256.428 541.290 C 258.960 541.483, 259.324 541.031, 261.045 535.540 C 262.073 532.262, 262.820 529.498, 262.707 529.399 C 262.190 528.945, 230.151 519, 229.206 519 C 228.621 519, 227.435 521.432, 226.571 524.404 M 336.256 529.117 C 331.716 530.428, 326.293 536.197, 324.965 541.129 C 322.692 549.571, 326.292 560.259, 332.913 564.720 C 339.828 569.381, 353.449 567.009, 359.231 560.138 C 366.035 552.051, 362.515 534.900, 353.016 529.852 C 349.247 527.849, 341.780 527.522, 336.256 529.117 M 263.604 530.589 C 262.530 533.389, 262.962 536, 264.500 536 C 266.328 536, 266.329 535.508, 264.480 546.500 C 262.299 559.469, 262.221 559.709, 260.011 560.287 C 258.660 560.640, 258 561.649, 258 563.361 C 258 565.453, 258.582 566.011, 261.250 566.479 C 263.038 566.792, 266.750 567.450, 269.499 567.941 C 272.249 568.433, 274.607 568.727, 274.739 568.595 C 274.871 568.462, 275.265 566.924, 275.615 565.177 C 276.120 562.650, 275.917 562, 274.625 562 C 272.647 562, 272.662 561.157, 274.864 548.500 L 276.604 538.500 279.462 538.710 C 281.034 538.826, 282.671 539.276, 283.099 539.710 C 283.527 540.145, 286.814 547.025, 290.403 555 L 296.930 569.500 302.083 569.500 L 307.237 569.500 313.651 555 C 317.178 547.025, 320.725 540, 321.532 539.390 C 322.340 538.779, 323 537.092, 323 535.640 C 323 533.021, 322.939 533, 315.500 533 L 308 533 308 536 C 308 538.089, 308.488 539, 309.607 539 C 310.510 539, 310.980 539.547, 310.681 540.250 C 310.387 540.938, 308.607 545.202, 306.725 549.728 L 303.302 557.955 300.736 550.228 C 299.325 545.977, 297.859 541.712, 297.478 540.750 C 296.993 539.522, 297.266 539, 298.393 539 C 299.512 539, 300 538.089, 300 536 C 300 533.015, 299.971 533, 294.250 532.994 C 289.117 532.989, 271.981 530.857, 266.354 529.523 C 264.974 529.196, 263.993 529.576, 263.604 530.589 M 338.387 538.533 C 334.911 543.838, 338.616 557.363, 343.909 558.692 C 350.748 560.409, 352.107 545.154, 345.730 538.250 C 343.007 535.302, 340.439 535.401, 338.387 538.533" stroke="none" fill="#ffffff" fill-rule="evenodd"/><path d="M 228.467 23.750 C 229.653 26.800, 237 48.205, 237 48.611 C 237 48.825, 229.575 49, 220.500 49 C 211.425 49, 204 49.139, 204 49.310 C 204 49.480, 206.488 56.742, 209.529 65.448 C 212.570 74.153, 214.932 81.389, 214.779 81.527 C 214.625 81.665, 209.325 83.883, 203 86.456 C 113.473 122.875, 50.887 202.245, 35.796 298.500 C 32.845 317.327, 32.597 357.355, 35.322 375 C 42.058 418.602, 55.924 454.927, 79.034 489.510 C 88.646 503.895, 96.781 513.860, 109.939 527.371 C 153.876 572.487, 209.914 600.253, 273 608.167 C 286.522 609.863, 322.478 609.863, 336 608.167 C 396.129 600.624, 449.805 575.163, 492.353 534 C 508.327 518.547, 518.613 506.355, 529.927 489.467 C 553.165 454.780, 567.019 418.647, 573.699 375.305 C 574.913 367.424, 575.376 357.600, 575.410 339 C 575.458 312.381, 574.368 300.814, 569.896 280.500 C 550.597 192.835, 489.403 120.384, 406 86.456 C 399.675 83.883, 394.375 81.665, 394.221 81.527 C 394.068 81.389, 396.430 74.153, 399.471 65.448 C 402.512 56.742, 405 49.480, 405 49.310 C 405 49.139, 397.575 49, 388.500 49 C 379.425 49, 372 48.796, 372 48.548 C 372 48.299, 374.025 42.353, 376.500 35.336 C 378.975 28.318, 381 22.446, 381 22.288 C 381 22.130, 346.527 22, 304.393 22 C 231.841 22, 227.822 22.093, 228.467 23.750 M 254.204 38.134 C 254.483 38.885, 255.968 44.675, 257.503 51 C 260.267 62.385, 260.343 62.538, 265.055 66.250 C 267.673 68.313, 270.028 70, 270.290 70 C 270.551 70, 269.423 64.487, 267.783 57.750 C 265.078 46.636, 264.463 45.191, 261.151 42.163 C 256.567 37.972, 253.479 36.181, 254.204 38.134 M 348.875 40.581 C 344.318 43.956, 344.214 44.163, 341.065 56.062 C 339.310 62.695, 338.015 68.515, 338.187 68.994 C 338.359 69.474, 340.568 68.329, 343.096 66.451 C 347.663 63.058, 347.713 62.956, 350.936 50.442 C 352.721 43.515, 354.026 37.693, 353.837 37.504 C 353.648 37.315, 351.415 38.699, 348.875 40.581 M 299.355 72.475 L 294.568 86.950 279.698 87.225 L 264.828 87.500 276.814 96.243 L 288.800 104.986 284.347 118.584 C 281.898 126.063, 280.030 132.551, 280.197 133.002 C 280.364 133.454, 285.675 130.049, 292 125.435 C 298.325 120.821, 303.950 117.046, 304.500 117.046 C 305.050 117.046, 310.675 120.822, 317 125.436 C 323.325 130.050, 328.621 133.302, 328.770 132.663 C 328.918 132.023, 327.039 125.543, 324.594 118.262 L 320.148 105.024 332.160 96.262 L 344.172 87.500 329.302 87.225 L 314.432 86.950 309.645 72.475 C 307.013 64.514, 304.697 58, 304.500 58 C 304.303 58, 301.987 64.514, 299.355 72.475 M 237.575 82.750 C 241.069 94.162, 249.456 121.611, 256.213 143.747 L 268.500 183.994 304.250 183.997 C 323.913 183.999, 340 183.856, 340 183.680 C 340 183.504, 348.312 156.191, 358.472 122.985 C 368.631 89.779, 376.769 62.436, 376.556 62.223 C 376.343 62.010, 373.968 63.478, 371.279 65.486 L 366.390 69.136 350.021 122.583 L 333.653 176.029 304.092 175.765 L 274.532 175.500 259.789 127.500 C 251.680 101.100, 244.358 77.174, 243.518 74.332 C 242.264 70.086, 241.122 68.526, 237.112 65.582 C 234.428 63.612, 232.005 62, 231.728 62 C 231.450 62, 234.082 71.338, 237.575 82.750 M 219.970 96.848 C 146.255 123.325, 88.441 181.659, 63.226 255.001 C 55.685 276.935, 51.551 298.270, 50.133 322.570 C 46.546 384.077, 64.109 442.293, 101.180 491.770 C 110.491 504.197, 131.622 525.918, 144.500 536.300 C 201.482 582.237, 274.558 601.393, 347 589.385 C 371.575 585.311, 393.764 578.106, 417.500 566.493 C 442.875 554.078, 464.480 538.571, 485.026 518.026 C 505.571 497.480, 521.078 475.875, 533.493 450.500 C 548.245 420.348, 556.085 392.203, 558.980 359 C 563.003 312.870, 553.575 264.107, 532.685 223 C 519.615 197.281, 506.254 179.084, 484.575 157.480 C 461.434 134.419, 444.420 122.171, 416.500 108.472 C 401.959 101.337, 378.294 92.373, 377.115 93.552 C 376.504 94.163, 373.937 102.336, 374.293 102.536 C 374.407 102.600, 379.450 104.357, 385.500 106.441 C 465.585 134.023, 527.444 204.419, 544.425 287.295 C 548.451 306.947, 549.429 317.240, 549.337 339 C 549.214 368.256, 545.528 390.507, 536.363 417.317 C 518.974 468.190, 483.871 513.140, 438 543.273 C 394.882 571.598, 338.288 586.172, 287.223 582.103 C 198.836 575.060, 123.665 524.305, 84.904 445.500 C 72.435 420.148, 65.283 396.223, 61.438 367 C 59.123 349.403, 59.887 314.546, 62.970 297.128 C 76.894 218.463, 126.079 152.479, 196.500 117.995 C 207.588 112.565, 227.649 104.598, 235.664 102.442 C 237.658 101.906, 234.674 93.544, 232.395 93.283 C 231.353 93.163, 225.761 94.768, 219.970 96.848 M 245 168.542 C 231.628 173.285, 211.188 183.820, 200 191.733 C 187.679 200.448, 165.421 222.713, 156.745 235 C 148.209 247.090, 136.990 269.416, 132.543 283.166 C 125.975 303.471, 124.526 313.632, 124.512 339.500 C 124.502 359.563, 124.793 363.947, 126.796 373.834 C 131.731 398.193, 143.147 424.924, 156.743 443.960 C 169.208 461.412, 188.314 479.752, 206 491.241 C 266.618 530.621, 345.105 530.198, 405 490.167 C 464.901 450.134, 495.123 379.722, 482.976 308.500 C 471.791 242.913, 424.959 188.714, 361.187 167.552 C 356.614 166.035, 352.714 164.952, 352.520 165.147 C 352.326 165.341, 351.255 167.816, 350.139 170.647 L 348.110 175.795 358.805 179.482 C 418.659 200.120, 461.272 250.409, 471.517 312.500 C 477.011 345.799, 472.064 381.024, 457.612 411.500 C 420.642 489.463, 330.801 527.479, 249.852 499.415 C 200.224 482.209, 160.187 441.624, 144.049 392.164 C 137.677 372.634, 136.564 364.807, 136.564 339.500 C 136.564 314.193, 137.677 306.366, 144.049 286.836 C 155.748 250.979, 182.237 217.011, 214.500 196.492 C 222.921 191.137, 240.333 182.865, 250.330 179.471 L 258.774 176.603 257.296 171.552 C 256.484 168.773, 255.522 166.201, 255.159 165.836 C 254.797 165.471, 250.225 166.688, 245 168.542 M 289.500 197.019 C 255.576 200.799, 225.759 215.177, 201.468 239.468 C 180.177 260.759, 166.497 286.248, 160.987 314.894 C 148.708 378.728, 179.482 442.362, 237.210 472.510 C 248.442 478.376, 263.929 483.906, 276.500 486.540 C 287.411 488.826, 310.410 489.572, 322.660 488.036 C 388.317 479.806, 439.932 429.204, 449.617 363.573 C 451.716 349.345, 451.017 326.784, 448.043 312.801 C 435.786 255.176, 389.999 210.142, 332.355 199.018 C 320.230 196.678, 300.723 195.768, 289.500 197.019 M 274.500 210.601 C 264.932 212.889, 256.156 215.947, 246.750 220.269 L 238 224.290 238 342.628 L 238 460.966 242.941 463.470 C 254.264 469.208, 274.850 476, 280.917 476 L 283 476 283 342.500 C 283 236.322, 282.744 209.017, 281.750 209.083 C 281.063 209.129, 277.800 209.812, 274.500 210.601 M 327 342.614 L 327 476.227 331.750 475.542 C 338.218 474.609, 355.500 468.786, 362.921 465.040 L 369 461.971 369 342.643 L 369 223.315 361.250 219.717 C 352.263 215.545, 344.275 212.796, 334.688 210.577 C 330.941 209.710, 327.679 209, 327.438 209 C 327.197 209, 327 269.126, 327 342.614 M 497.701 226.598 C 495.678 227.695, 495.065 228.631, 495.492 229.975 C 495.938 231.381, 493.818 234.022, 486.791 240.812 C 481.681 245.751, 476.438 250.648, 475.139 251.695 L 472.778 253.598 477.505 263.049 C 480.104 268.247, 482.362 272.646, 482.523 272.824 C 483.032 273.390, 488.805 270.085, 489.160 269.024 C 489.347 268.464, 494.606 267.239, 500.847 266.301 C 511.531 264.697, 512.251 264.697, 513.147 266.298 C 514.033 267.882, 514.322 267.887, 517.300 266.373 C 519.060 265.478, 520.641 264.624, 520.813 264.476 C 520.985 264.328, 519.297 260.568, 517.061 256.121 L 512.995 248.035 509.548 249.678 C 506.754 251.011, 506.278 251.651, 507.033 253.061 C 507.702 254.313, 507.548 254.959, 506.482 255.368 C 505.453 255.763, 504.248 254.450, 502.533 251.064 C 500.462 246.977, 500.287 246.007, 501.448 245.043 C 502.538 244.139, 502.970 244.331, 503.483 245.947 C 503.842 247.076, 504.533 248, 505.020 248 C 506.757 248, 511 245.662, 511 244.705 C 511 242.964, 502.151 224.999, 501.313 225.040 C 500.866 225.062, 499.240 225.763, 497.701 226.598 M 107.429 229.838 C 99.451 233.569, 94.115 243.365, 95.290 252.125 C 96.044 257.748, 96.942 258.397, 101.913 256.908 L 106.072 255.662 105.422 251.329 C 104.473 244.999, 106.678 241.998, 112.273 242.007 C 118.260 242.016, 124.885 246.803, 124.968 251.179 C 125.021 253.952, 122.021 256.152, 118.651 255.811 C 115.964 255.540, 115.275 256.015, 113.300 259.500 C 112.053 261.700, 111.025 263.751, 111.016 264.057 C 111.007 264.363, 114.149 266.137, 117.999 267.999 C 124.846 271.312, 125.030 271.343, 126.492 269.443 C 128.212 267.206, 129.487 263.154, 128.714 262.381 C 128.425 262.091, 129.748 260.425, 131.656 258.677 C 144.967 246.478, 124.344 221.928, 107.429 229.838 M 490.963 254.613 L 487.500 258.261 491.962 257.585 C 494.417 257.213, 496.590 256.744, 496.791 256.543 C 496.992 256.341, 496.542 255.004, 495.791 253.571 L 494.426 250.965 490.963 254.613 M 89 261.401 C 89 261.724, 83.861 278.417, 80.597 288.694 C 79.964 290.689, 80.506 291.076, 86.556 292.944 C 94.643 295.442, 93.877 295.460, 94.891 292.750 C 97.337 286.213, 97.313 286.005, 93.998 284.850 C 91.248 283.891, 90.930 283.416, 91.504 281.127 C 91.866 279.685, 92.298 278.368, 92.464 278.203 C 92.630 278.037, 97.543 279.363, 103.383 281.151 C 111.499 283.635, 114 284.806, 114 286.121 C 114 288.015, 119.638 289.819, 120.969 288.351 C 121.853 287.376, 126.282 272.915, 125.811 272.543 C 125.640 272.408, 124.045 271.806, 122.267 271.206 C 119.729 270.350, 118.870 270.404, 118.267 271.456 C 117.159 273.393, 96.378 266.859, 96.770 264.697 C 96.932 263.800, 95.781 262.771, 93.871 262.105 C 90.556 260.949, 89 260.725, 89 261.401 M 413.025 343 L 413.006 424.500 417.061 418.500 C 426.142 405.064, 433.917 386.654, 437.581 369.915 C 439.768 359.921, 440.580 335.460, 439.076 324.867 C 436.023 303.361, 426.218 278.603, 414.970 264 C 413.065 261.526, 413.044 262.349, 413.025 343 M 190.223 270.264 C 181.483 284.103, 175.012 300.469, 171.348 318 C 168.683 330.754, 168.923 356.146, 171.837 369.734 C 175.432 386.498, 182.846 404.426, 191.497 417.272 L 195 422.473 195 343.237 C 195 299.656, 194.815 264, 194.590 264 C 194.364 264, 192.399 266.819, 190.223 270.264 M 512.284 272.683 C 511.065 272.929, 508.946 274.464, 507.574 276.095 C 505.091 279.045, 504.806 280.073, 503.294 291.500 C 502.623 296.569, 502.190 297.500, 500.500 297.500 C 497.431 297.500, 497.096 290.746, 500.063 288.669 C 502.109 287.235, 502.165 286.855, 501.018 282.074 C 500.348 279.283, 499.573 277, 499.295 277 C 498.444 277, 486.520 280.159, 486.205 280.467 C 486.043 280.627, 486.434 282.836, 487.074 285.378 C 487.991 289.021, 488.678 290, 490.319 290 C 491.937 290, 492.133 290.267, 491.200 291.200 C 489.525 292.875, 489.700 301.520, 491.480 304.961 C 496.440 314.553, 509.874 314.410, 512.850 304.734 C 513.398 302.955, 514.144 298.437, 514.508 294.693 C 515.055 289.086, 515.465 287.942, 516.836 288.201 C 519.240 288.657, 519.736 295.989, 517.474 297.643 C 516.185 298.585, 515.950 299.745, 516.450 302.703 C 517.528 309.085, 517.962 309.376, 524.290 307.960 C 532.239 306.181, 532.307 306.106, 530.935 300.658 C 530.050 297.142, 529.293 296, 527.846 296 C 526.261 296, 526.109 295.665, 526.965 294.066 C 529.584 289.173, 526.434 277.617, 521.636 274.516 C 519.023 272.827, 515.243 272.086, 512.284 272.683 M 108 301.417 C 108 302.850, 107.154 302.958, 101.250 302.278 C 82.404 300.106, 75.502 304.076, 74.306 317.775 C 73.379 328.392, 79.115 333.263, 94.888 335.254 C 102.592 336.226, 103.947 336.680, 104.420 338.444 C 105.524 342.554, 105.144 342.818, 97.250 343.437 C 92.987 343.771, 87.813 344.216, 85.750 344.427 C 83.015 344.706, 82 344.430, 82 343.405 C 82 342.425, 80.750 342, 77.871 342 L 73.742 342 74.409 352.250 C 75.461 368.428, 75.991 370.959, 79.052 374.384 C 81.415 377.029, 82.541 377.500, 86.500 377.500 C 90.468 377.500, 91.584 377.030, 93.973 374.356 C 96.568 371.452, 96.907 371.336, 98.410 372.838 C 101.019 375.447, 107.666 374.788, 110.852 371.604 C 113.813 368.645, 113.695 370.500, 112.909 339.250 L 112.500 323.001 108.833 323 C 106.817 323, 104.989 323.532, 104.772 324.183 C 104.469 325.092, 102.435 325.090, 95.959 324.174 C 86.022 322.769, 83.316 320.930, 84.932 316.679 C 85.863 314.231, 86.416 314, 91.336 314 C 99.754 314, 106 315.103, 106 316.591 C 106 317.792, 112.564 319.770, 113.487 318.846 C 113.950 318.383, 116.102 301.765, 115.744 301.416 C 115.610 301.285, 113.813 300.863, 111.750 300.478 C 108.657 299.900, 108 300.065, 108 301.417 M 526.750 312.689 C 525.788 312.941, 525 313.740, 525 314.465 C 525 316.160, 522.587 316.703, 511.250 317.559 C 502.823 318.196, 502 318.101, 502 316.498 C 502 315.034, 501.391 314.837, 498.376 315.326 C 496.383 315.650, 494.555 316.112, 494.314 316.352 C 493.833 316.834, 495.561 333.930, 496.140 334.415 C 496.338 334.581, 498.202 334.504, 500.281 334.245 C 503.333 333.865, 503.955 333.435, 503.506 332.018 C 503.008 330.451, 504.047 330.183, 513.130 329.539 C 518.730 329.142, 523.857 328.608, 524.524 328.352 C 525.191 328.096, 525.978 328.810, 526.273 329.937 C 526.726 331.667, 527.334 331.888, 530.155 331.350 C 531.995 331, 533.633 330.607, 533.795 330.478 C 533.957 330.349, 533.780 326.138, 533.402 321.122 C 532.664 311.355, 532.526 311.180, 526.750 312.689 M 520 336.875 C 520 337.906, 519.719 340.156, 519.375 341.875 C 518.767 344.915, 518.848 345, 522.375 345 C 525.798 345, 526 345.181, 526.002 348.250 L 526.004 351.500 514.502 351.189 C 505.303 350.941, 503 350.591, 503 349.439 C 503 348.427, 501.814 348, 499 348 L 495 348 495 356.381 C 495 362.201, 493.909 369.869, 491.431 381.478 C 489.468 390.672, 488.056 398.390, 488.295 398.628 C 488.533 398.867, 490.186 399.480, 491.968 399.991 C 494.724 400.781, 495.280 400.646, 495.687 399.087 C 496.189 397.170, 497.124 397.284, 515.750 401.526 C 517.154 401.845, 518 402.783, 518 404.019 C 518 405.234, 518.677 406.005, 519.750 406.014 C 520.712 406.021, 522.434 406.278, 523.575 406.584 C 525.519 407.106, 525.859 406.129, 528.986 391.066 C 530.822 382.224, 532.070 374.737, 531.761 374.428 C 531.452 374.119, 528.690 373.283, 525.624 372.570 C 519.410 371.125, 519.753 370.854, 518.442 378.250 C 517.820 381.763, 517.936 382, 520.283 382 C 522.642 382, 522.742 382.211, 521.982 385.579 C 520.955 390.134, 521.075 390.049, 516.673 389.334 C 513.866 388.879, 513.067 388.333, 513.422 387.115 C 513.681 386.227, 514.182 383.870, 514.534 381.878 C 515.160 378.336, 515.093 378.240, 511.485 377.563 C 509.456 377.183, 507.662 377.013, 507.498 377.186 C 507.334 377.358, 506.793 379.525, 506.297 382 C 505.450 386.221, 505.212 386.480, 502.454 386.174 C 498.687 385.757, 498.749 385.856, 499.564 381.510 C 500.165 378.307, 500.569 377.876, 502.607 378.265 C 505.110 378.744, 505.404 378.268, 506.529 371.904 L 507.165 368.309 501.832 367.286 C 497.581 366.470, 497.159 366.236, 499.750 366.131 C 501.914 366.044, 503 365.499, 503 364.500 C 503 363.291, 504.502 363.011, 510.750 363.058 C 519.939 363.126, 526.112 364.113, 526.022 365.500 C 525.987 366.050, 527.527 366.639, 529.445 366.808 C 533.793 367.193, 533.866 366.925, 534.229 349.300 C 534.538 334.262, 535.026 335.039, 525.250 335.014 C 520.778 335.002, 520 335.278, 520 336.875 M 99.250 355.662 C 97.520 356.360, 97.683 359.492, 99.530 361.025 C 101.881 362.976, 106 360.746, 106 357.521 C 106 355.418, 105.544 355.013, 103.250 355.079 C 101.737 355.122, 99.938 355.385, 99.250 355.662 M 84.693 356.700 C 83.338 357.051, 82.963 357.961, 83.193 360.334 C 83.453 363.011, 83.956 363.552, 86.451 363.836 C 89.987 364.238, 91.928 362.077, 91.245 358.499 C 90.765 355.992, 89.144 355.547, 84.693 356.700 M 112 388.295 C 110.625 388.958, 109.500 390.175, 109.500 391 C 109.500 392.009, 106.135 393.645, 99.215 396 C 90.771 398.873, 88.776 399.252, 88.072 398.115 C 87.526 397.233, 86.358 396.957, 84.857 397.356 C 79.801 398.700, 79.780 399, 83.928 410.426 C 89.337 425.328, 94.084 430.022, 103.700 429.978 C 115.752 429.923, 125.611 419.307, 123.492 408.666 C 122.124 401.799, 116.769 387.003, 115.668 387.045 C 115.025 387.070, 113.375 387.632, 112 388.295 M 103.062 407.396 C 97.871 409.173, 93.438 411.187, 93.210 411.871 C 92.981 412.556, 93.586 413.990, 94.552 415.058 C 98.113 418.992, 110.196 416.683, 113.652 411.408 C 115.252 408.966, 115.162 404.819, 113.500 404.411 C 112.950 404.276, 108.253 405.620, 103.062 407.396 M 125.291 422.726 C 123.101 423.816, 122.148 424.960, 122.291 426.325 C 122.596 429.247, 104.138 439.998, 102.830 437.660 C 102.051 436.268, 101.578 436.316, 98.564 438.095 L 95.175 440.094 103.254 454.297 C 107.698 462.109, 111.489 468.693, 111.678 468.928 C 112.021 469.354, 119.396 465.551, 121.720 463.750 C 122.660 463.022, 122.491 461.923, 120.985 458.970 C 118.796 454.680, 117.443 453.475, 116.510 454.984 C 115.363 456.839, 113.453 456.038, 111.618 452.931 C 110.621 451.243, 109.961 449.756, 110.153 449.628 C 116.063 445.657, 116.210 445.629, 118.136 448.127 C 119.143 449.432, 120.230 451.288, 120.551 452.250 C 121.269 454.403, 122.254 454.437, 126.111 452.443 L 129.123 450.885 126.473 446.364 C 125.016 443.877, 123.976 441.742, 124.162 441.619 C 129.656 437.977, 129.533 437.977, 131.490 441.611 C 133.286 444.947, 133.285 445.071, 131.452 446.411 C 129.613 447.756, 129.615 447.870, 131.535 451.476 C 134.090 456.274, 134.350 456.387, 138.221 454.386 C 140.801 453.052, 141.239 453.006, 140.274 454.169 C 139.448 455.165, 139.378 455.978, 140.058 456.658 C 141.505 458.105, 124.173 472.389, 122.577 471.064 C 121.787 470.409, 120.474 470.844, 118.504 472.415 C 115.716 474.638, 115.662 474.832, 117.209 477.117 C 118.097 478.428, 120.775 481.633, 123.161 484.239 L 127.500 488.979 130.430 486.558 C 132.754 484.639, 133.120 483.849, 132.201 482.742 C 131.279 481.631, 131.656 480.891, 134.045 479.125 L 137.049 476.904 139.643 479.988 C 145.520 486.972, 153.173 488.027, 158.600 482.600 C 164.605 476.595, 163.321 472.201, 151.369 457.853 C 147.866 453.648, 145 449.983, 145 449.709 C 145 449.146, 128.935 420.965, 128.671 421.064 C 128.577 421.099, 127.056 421.847, 125.291 422.726 M 473.566 430.868 C 471.055 435.869, 469 440.364, 469 440.859 C 469 442.055, 474.880 444.453, 475.730 443.603 C 476.096 443.237, 480.118 446.641, 484.667 451.166 C 491.087 457.552, 492.821 459.863, 492.414 461.486 C 492.004 463.119, 492.630 463.930, 495.271 465.189 L 498.653 466.802 502.746 458.548 L 506.840 450.294 503.452 448.678 C 500.298 447.175, 499.997 447.182, 499.094 448.781 C 498.353 450.095, 497.846 450.225, 496.943 449.331 C 496.035 448.432, 496.311 447.174, 498.131 443.904 C 501.070 438.624, 503.507 437.413, 502.565 441.703 C 502.016 444.203, 502.307 444.819, 504.507 445.821 C 505.930 446.470, 507.519 447, 508.038 447 C 508.557 447, 511.205 442.569, 513.923 437.153 L 518.865 427.306 515.464 425.684 C 512.315 424.183, 511.996 424.186, 511.135 425.723 C 510.277 427.256, 509.191 427.208, 496.853 425.083 C 489.509 423.818, 482.292 422.557, 480.816 422.280 C 478.299 421.808, 477.849 422.341, 473.566 430.868 M 486.958 439.432 L 490.416 443.025 491.639 440.762 C 493.138 437.989, 492.595 437.434, 487.500 436.541 L 483.500 435.840 486.958 439.432 M 450.890 465.638 L 445.608 472.276 448.510 474.590 C 450.457 476.142, 451.791 476.588, 452.565 475.946 C 454.215 474.577, 470.879 487.846, 470.661 490.356 C 470.572 491.377, 471.724 493.142, 473.220 494.279 L 475.940 496.346 477.860 493.923 C 478.916 492.590, 483.203 487.225, 487.386 482 C 491.570 476.775, 494.994 472.217, 494.996 471.872 C 495.004 470.541, 483.873 462.736, 483.191 463.594 C 482.794 464.092, 481.352 465.777, 479.985 467.339 L 477.500 470.177 480.245 472.373 C 482.825 474.435, 482.897 474.702, 481.439 476.784 C 480.585 478.003, 479.518 479, 479.068 479 C 478.618 479, 474.394 475.915, 469.681 472.145 C 463.878 467.503, 461.439 464.961, 462.127 464.273 C 462.815 463.585, 462.269 462.570, 460.436 461.129 C 458.948 459.958, 457.380 459, 456.951 459 C 456.523 459, 453.795 461.987, 450.890 465.638 M 145.180 469.805 C 141.867 472.557, 141.864 472.567, 143.890 474.400 C 148.157 478.262, 153.830 473.392, 150.157 469.020 C 148.520 467.070, 148.460 467.080, 145.180 469.805 M 428.698 486.894 C 419.775 494.980, 400.750 508.006, 394.500 510.309 C 393.907 510.527, 394.215 512.188, 395.259 514.392 C 396.227 516.435, 397.451 517.839, 397.980 517.512 C 399.195 516.761, 399.864 519.812, 400.220 527.725 L 400.500 533.950 394.752 528.258 C 390.913 524.456, 389.179 522.012, 389.532 520.898 C 390.104 519.098, 388.080 513.770, 386.997 514.224 C 378.503 517.781, 369 522.525, 369 523.208 C 369 525.630, 372.127 529.889, 373.514 529.356 C 374.462 528.993, 379.796 532.660, 388.026 539.333 L 401.040 549.884 405.092 548.070 C 407.321 547.072, 409.524 545.861, 409.989 545.378 C 410.454 544.895, 410.426 537.331, 409.927 528.568 C 409.119 514.373, 409.199 512.437, 410.665 510.818 C 411.570 509.818, 412.641 509, 413.046 509 C 413.450 509, 416.589 513.100, 420.021 518.110 C 424.773 525.048, 425.943 527.417, 424.927 528.045 C 423.822 528.728, 423.839 529.331, 425.030 531.556 C 425.821 533.033, 427.015 534.452, 427.684 534.709 C 429.105 535.254, 442.998 525.977, 442.973 524.500 C 442.935 522.321, 439.228 518.699, 437.653 519.303 C 435.305 520.204, 422.511 501.873, 424.646 500.667 C 425.927 499.943, 425.895 499.482, 424.406 497.167 L 422.690 494.500 424.808 496.371 C 425.973 497.400, 427.586 497.989, 428.393 497.680 C 430.596 496.834, 445.303 513.297, 443.740 514.860 C 442.850 515.750, 443.204 516.658, 445.229 518.684 L 447.886 521.340 453.193 516.750 C 456.112 514.225, 461.378 509.525, 464.895 506.307 L 471.291 500.456 466.229 494.978 L 461.167 489.500 457.589 492.941 L 454.010 496.382 456.203 498.716 L 458.395 501.049 456.142 503.275 L 453.888 505.500 446.513 497.500 C 441.101 491.629, 439.267 488.961, 439.621 487.473 C 439.931 486.177, 439.237 484.632, 437.696 483.184 L 435.288 480.922 428.698 486.894 M 161.500 483.567 C 154.133 487.385, 148.067 496.032, 148.022 502.782 C 147.997 506.524, 150.263 512.506, 152.788 515.365 C 153.730 516.431, 156.501 518.585, 158.946 520.151 C 167.450 525.601, 177.634 523.289, 184.451 514.361 C 189.173 508.176, 190.539 502.998, 188.948 497.315 C 187.533 492.261, 181.462 485.509, 176.451 483.415 C 172.004 481.557, 165.246 481.626, 161.500 483.567 M 167.548 496.092 C 163.973 499.231, 161.914 502.354, 160.593 506.645 C 159.870 508.991, 162.118 512, 164.594 512 C 166.704 512, 174.577 504.437, 175.971 501.070 C 179.138 493.424, 174.027 490.403, 167.548 496.092 M 193.464 503.069 C 192.313 505.295, 192.143 506.543, 192.890 507.290 C 194.467 508.867, 184.042 528.140, 181.965 527.486 C 180.650 527.071, 177 531.397, 177 533.370 C 177 534.134, 191.214 541.970, 192.629 541.987 C 194.410 542.008, 196.514 536.114, 195.196 534.796 C 194.405 534.005, 194.510 532.914, 195.577 530.851 C 198.545 525.112, 201.143 528.687, 198.608 535.022 C 196.284 540.830, 196.587 542.787, 200.400 546.600 C 205.677 551.877, 211.405 551.253, 215.351 544.972 C 216.834 542.612, 216.811 542.363, 215.010 541.238 C 213.415 540.243, 212.913 540.333, 212.115 541.758 C 210.563 544.532, 209.924 542.660, 211.237 539.184 C 212.144 536.779, 212.161 535.266, 211.306 533 C 210.214 530.108, 210.275 530, 212.998 530 C 216.915 530, 221 525.032, 221 520.268 C 221 515.476, 216.178 511.007, 204.208 504.704 L 195.099 499.908 193.464 503.069 M 202.627 517.655 C 200.649 521.805, 201.582 523.217, 206 522.759 C 209.229 522.424, 210.111 517.558, 207.325 515.447 C 204.749 513.494, 204.572 513.578, 202.627 517.655 M 227.477 519.250 C 226.615 521.593, 224.022 530.498, 224.011 531.152 C 224 531.810, 229.529 534, 231.201 534 C 231.698 534, 232.575 532.650, 233.150 531 C 234.237 527.882, 234.775 527.530, 236.566 528.765 C 237.283 529.260, 236.547 532.962, 234.309 540.110 C 231.231 549.940, 230.818 550.688, 228.686 550.280 C 226.772 549.914, 226.202 550.435, 225.300 553.374 L 224.216 556.907 233.360 559.953 C 238.390 561.629, 242.991 563, 243.585 563 C 244.179 563, 245.163 561.376, 245.772 559.391 C 246.766 556.153, 246.680 555.729, 244.940 555.274 C 242.433 554.619, 242.442 554.532, 246.148 542.841 C 248.579 535.172, 249.661 532.991, 250.898 533.265 C 252.582 533.637, 252.626 533.924, 251.647 538.097 C 251.101 540.429, 251.432 540.813, 254.885 541.847 C 260.030 543.389, 259.820 543.475, 260.566 539.500 C 261.197 536.137, 263.192 534.884, 264.514 537.023 C 264.861 537.585, 264.372 542.760, 263.426 548.523 C 262.009 557.159, 261.401 559, 259.965 559 C 258.756 559, 258.016 560.103, 257.547 562.602 C 257.175 564.583, 257.013 566.315, 257.186 566.450 C 257.700 566.852, 271.722 569, 273.829 569 C 276.357 569, 277.476 563.069, 275.255 561.445 C 273.967 560.503, 274.002 559.052, 275.539 549.685 C 277.336 538.739, 278.120 537.522, 281.851 539.887 C 282.595 540.358, 286.242 547.439, 289.956 555.622 L 296.709 570.500 302.042 570.500 L 307.375 570.500 314.127 555.500 C 318.117 546.636, 321.517 540.368, 322.439 540.177 C 323.534 539.950, 324 538.680, 324 535.927 L 324 532 316 532 C 308.205 532, 308 532.062, 308 534.418 C 308 535.748, 307.742 537.509, 307.427 538.331 C 307.097 539.188, 307.483 539.969, 308.331 540.163 C 309.530 540.436, 309.207 541.946, 306.621 548.163 L 303.432 555.825 301.281 549.663 C 300.098 546.273, 298.828 542.712, 298.458 541.750 C 297.990 540.531, 298.273 540, 299.393 540 C 300.601 540, 301 539.007, 301 536 L 301 532 292.750 531.997 C 288.212 531.995, 280.675 531.345, 276 530.552 C 271.325 529.758, 266.150 528.916, 264.500 528.679 C 262.850 528.443, 254.248 525.943, 245.385 523.125 C 236.522 520.306, 228.970 518, 228.604 518 C 228.237 518, 227.730 518.563, 227.477 519.250 M 337.764 527.996 C 332.781 529.496, 328.454 532.848, 326.106 537.025 C 324.139 540.524, 323.844 542.247, 324.156 548.414 C 324.454 554.326, 325.046 556.470, 327.328 559.919 C 335.041 571.575, 355.141 570.297, 361.636 557.737 C 364.231 552.718, 363.676 543.850, 360.350 537.199 C 358.075 532.649, 356.600 531.046, 353.038 529.250 C 348.467 526.945, 342.799 526.480, 337.764 527.996 M 338.607 538.582 C 336.093 545.133, 339.930 558, 344.398 558 C 348.196 558, 349.339 555.672, 348.747 549.144 C 348.017 541.096, 345.769 537, 342.081 537 C 340.389 537, 338.965 537.648, 338.607 538.582" stroke="none" fill="#000000" fill-rule="evenodd"/></svg>